# xmcd CD database file
#
# Track frame offsets:
#	150
#	19093
#	40878
#	60041
#
# Disc length: 1085 seconds
#
# Revision: 0
# Processed by: cddbd v1.5.1PL0 Copyright (c) Steve Scherf et al.
# Submitted via: CDex 1.51
#
DISCID=23043b04
DTITLE=池田 綾子 - 僕たちのＴｏｍｏｒｒｏｗ
DYEAR=1900
DGENRE=Pop
TTITLE0=明日
TTITLE1=白いギフト
TTITLE2=朝陽の中で
TTITLE3=僕たちのＴｏｍｏｒｒｏｗ（インストゥルメンタル）
EXTD=
EXTT0=
EXTT1=
EXTT2=
EXTT3=
PLAYORDER=
